<svg className='fill-current text-green-600' xmlns="http://www.w3.org/2000/svg" viewBox="0 0 122.88 65.79"><path d="M13.37 31.32c-22.23 12.2 37.65 19.61 51.14 19.49v-7.44l11.21 11.2-11.21 11.22v-6.97C37.4 59.85-26.41 42.4 11.97 27.92c.36 1.13.8 2.2 1.3 3.2l.1.2zm94.99-23.01c0-2.61.47-4.44 1.41-5.48s2.37-1.56 4.3-1.56c.92 0 1.69.12 2.28.34.59.23 1.08.52 1.45.89.38.36.67.75.89 1.15.22.4.39.87.52 1.41.26 1.02.38 2.09.38 3.21 0 2.49-.42 4.32-1.27 5.47-.84 1.15-2.29 1.73-4.36 1.73-1.15 0-2.09-.19-2.8-.55-.71-.37-1.3-.91-1.75-1.62-.33-.51-.59-1.2-.77-2.07-.19-.89-.28-1.85-.28-2.92zm-81.89 2.18l-9-1.6c.75-2.86 2.18-5.06 4.31-6.59C23.9.77 26.91 0 30.8 0c4.47 0 7.69.83 9.69 2.5 1.99 1.67 2.98 3.77 2.98 6.29 0 1.48-.41 2.82-1.21 4.01-.81 1.2-2.02 2.25-3.65 3.15 1.32.33 2.34.71 3.03 1.15 1.14.7 2.02 1.63 2.65 2.77.63 1.15.95 2.51.95 4.1 0 2-.52 3.91-1.56 5.75-1.05 1.83-2.55 3.24-4.51 4.23-1.96.99-4.54 1.48-7.74 1.48-3.11 0-5.57-.37-7.36-1.1-1.8-.73-3.28-1.8-4.44-3.22-1.16-1.41-2.05-3.19-2.67-5.33l9.53-1.27c.38 1.92.95 3.26 1.74 4.01.78.74 1.78 1.12 3 1.12 1.27 0 2.33-.47 3.18-1.4.85-.93 1.27-2.18 1.27-3.74 0-1.59-.41-2.82-1.22-3.69-.81-.87-1.92-1.31-3.32-1.31-.74 0-1.77.18-3.07.56l.49-6.81c.52.08.93.12 1.22.12 1.23 0 2.26-.4 3.08-1.19.82-.79 1.24-1.72 1.24-2.81 0-1.05-.31-1.88-.93-2.49-.62-.62-1.48-.93-2.55-.93-1.12 0-2.02.34-2.72 1.01-.71.66-1.18 1.84-1.43 3.53zm48.68-2.22l-9.48 1.16c-.25-1.32-.66-2.24-1.24-2.78-.59-.54-1.31-.81-2.16-.81-1.54 0-2.74.77-3.59 2.33-.62 1.13-1.09 3.52-1.38 7.19 1.14-1.16 2.31-2.01 3.5-2.56 1.2-.55 2.59-.83 4.16-.83 3.06 0 5.64 1.09 7.75 3.27 2.11 2.19 3.17 4.96 3.17 8.31 0 2.26-.53 4.32-1.6 6.2-1.07 1.87-2.55 3.29-4.44 4.25-1.9.96-4.27 1.44-7.13 1.44-3.43 0-6.18-.58-8.25-1.76-2.07-1.17-3.73-3.03-4.97-5.59-1.24-2.56-1.86-5.95-1.86-10.18 0-6.18 1.3-10.71 3.91-13.59C54.13 1.44 57.74 0 62.36 0c2.73 0 4.88.31 6.46.94 1.58.63 2.9 1.56 3.94 2.76 1.05 1.22 1.85 2.74 2.39 4.57zM57.62 23.55c0 1.86.47 3.31 1.4 4.36.94 1.05 2.08 1.58 3.44 1.58 1.25 0 2.3-.48 3.14-1.43.84-.95 1.26-2.37 1.26-4.26 0-1.93-.44-3.41-1.31-4.42-.88-1.01-1.96-1.52-3.26-1.52-1.32 0-2.44.49-3.34 1.48-.89.98-1.33 2.38-1.33 4.21zm20.29-5.98c0-6.51 1.17-11.07 3.52-13.67C83.77 1.3 87.35 0 92.14 0c2.31 0 4.2.29 5.68.85 1.48.57 2.69 1.31 3.62 2.22.94.91 1.68 1.87 2.21 2.87.54 1.01.97 2.18 1.3 3.52.64 2.55.96 5.22.96 8 0 6.22-1.05 10.76-3.16 13.64-2.1 2.88-5.72 4.32-10.87 4.32-2.88 0-5.21-.46-6.99-1.38-1.78-.92-3.23-2.27-4.37-4.05-.82-1.26-1.47-2.98-1.93-5.17-.45-2.18-.68-4.6-.68-7.25zm9.43.02c0 4.36.38 7.34 1.16 8.94.77 1.6 1.89 2.39 3.36 2.39.97 0 1.8-.34 2.51-1.01.71-.68 1.23-1.76 1.56-3.22.34-1.47.5-3.75.5-6.85 0-4.55-.38-7.6-1.16-9.18-.77-1.56-1.93-2.35-3.47-2.35-1.58 0-2.71.8-3.42 2.39-.69 1.61-1.04 4.57-1.04 8.89zm24.8-9.27c0 1.75.15 2.94.46 3.58.31.64.76.96 1.35.96.39 0 .72-.13 1.01-.41.28-.27.49-.7.63-1.29.13-.59.2-1.5.2-2.74 0-1.82-.15-3.05-.46-3.68-.31-.63-.77-.94-1.39-.94-.63 0-1.09.32-1.37.96-.29.64-.43 1.83-.43 3.56zm-2.84 21.91c10.56 5.37 8.04 12.99-10.66 17.62-5.3 1.31-11.29 2.5-17.86 2.99v6.05c7.31-.51 14.11-2.19 20.06-3.63 28.12-6.81 27.14-18.97 9.36-25.83-.25.99-.55 1.92-.9 2.8z" fill-rule="evenodd" clip-rule="evenodd"/></svg>